<?xml version="1.0" standalone="no"?>
<!DOCTYPE svg PUBLIC "-//W3C//DTD SVG 20010904//EN"
 "http://www.w3.org/TR/2001/REC-SVG-20010904/DTD/svg10.dtd">
<svg version="1.0" xmlns="http://www.w3.org/2000/svg"
 width="48.000000pt" height="48.000000pt" viewBox="0 0 48.000000 48.000000"
 preserveAspectRatio="xMidYMid meet">

<g transform="translate(0.000000,48.000000) scale(0.100000,-0.100000)"
fill="#000000" stroke="none">
<path d="M335 420 c-30 -31 -36 -43 -27 -52 9 -9 16 -7 31 6 20 18 20 17 23
-45 2 -49 7 -64 18 -64 11 0 16 15 18 64 3 62 3 63 23 45 15 -13 22 -15 31 -6
9 9 3 21 -27 52 -21 22 -42 40 -45 40 -3 0 -24 -18 -45 -40z"/>
<path d="M65 376 c-24 -24 -25 -30 -25 -156 0 -126 1 -132 25 -155 23 -24 29
-25 155 -25 126 0 132 1 155 25 21 20 25 34 25 84 0 63 -14 86 -35 58 -11 -15
-14 -15 -30 3 -20 22 -64 27 -82 9 -9 -9 -21 -4 -48 20 -42 36 -63 39 -99 10
l-26 -20 0 65 0 65 88 3 c69 2 87 6 87 18 0 12 -17 16 -83 18 -76 3 -84 1
-107 -22z m170 -216 l80 -80 -118 0 -117 0 0 47 c0 39 5 52 32 80 18 18 35 33
38 33 3 0 41 -36 85 -80z m97 13 c19 -18 28 -37 28 -57 l0 -31 -46 47 c-26 25
-43 51 -40 57 11 18 28 13 58 -16z"/>
</g>
</svg>
